<svg id="SvgjsSvg1006" width="658" height="523.1572164948454" xmlns="http://www.w3.org/2000/svg" version="1.1" xmlns:xlink="http://www.w3.org/1999/xlink" xmlns:svgjs="http://svgjs.com/svgjs"><defs id="SvgjsDefs1007"><pattern patternUnits="userSpaceOnUse" id="pattern_mark_0" width="300" height="300"><text style="dominant-baseline: middle; text-anchor: middle;" x="150" y="100" fill="rgba(229,229,229,0.8)" font-size="18" transform="rotate(-45, 150, 150)"></text></pattern><pattern patternUnits="userSpaceOnUse" id="pattern_mark_1" width="300" height="300"><text style="dominant-baseline: middle; text-anchor: middle;" x="150" y="200" fill="rgba(229,229,229,0.8)" font-size="18" transform="rotate(-45, 150, 150)"></text></pattern><marker id="SvgjsMarker1077" markerWidth="14" markerHeight="12" refX="16" refY="6" viewBox="0 0 14 12" orient="auto" markerUnits="userSpaceOnUse" stroke-dasharray="0,0"><path id="SvgjsPath1078" d="M1,1 L14,6 L1,11L1,1" fill="#ffffff" stroke="#323232" stroke-width="2"></path></marker><marker id="SvgjsMarker1081" markerWidth="14" markerHeight="12" refX="16" refY="6" viewBox="0 0 14 12" orient="auto" markerUnits="userSpaceOnUse" stroke-dasharray="0,0"><path id="SvgjsPath1082" d="M1,1 L14,6 L1,11L1,1" fill="#ffffff" stroke="#323232" stroke-width="2"></path></marker><marker id="SvgjsMarker1085" markerWidth="20" markerHeight="12" refX="0" refY="6" viewBox="0 0 20 12" orient="0" markerUnits="userSpaceOnUse" stroke-dasharray="0,0"><path id="SvgjsPath1086" d="M2,6 L10,2 L18,6 L10,10L2,6" fill="#ffffff" stroke="#323232" stroke-width="2"></path></marker><marker id="SvgjsMarker1087" markerWidth="16" markerHeight="16" refX="11" refY="8" viewBox="0 0 16 16" orient="auto" markerUnits="userSpaceOnUse" stroke-dasharray="0,0"><path id="SvgjsPath1088" d="M0,0 L10,8 L0,16" fill="none" stroke="#323232" stroke-width="2"></path></marker><marker id="SvgjsMarker1111" markerWidth="14" markerHeight="12" refX="16" refY="6" viewBox="0 0 14 12" orient="auto" markerUnits="userSpaceOnUse" stroke-dasharray="0,0"><path id="SvgjsPath1112" d="M1,1 L14,6 L1,11L1,1" fill="#ffffff" stroke="#323232" stroke-width="2"></path></marker><marker id="SvgjsMarker1115" markerWidth="14" markerHeight="12" refX="16" refY="6" viewBox="0 0 14 12" orient="auto" markerUnits="userSpaceOnUse" stroke-dasharray="0,0"><path id="SvgjsPath1116" d="M1,1 L14,6 L1,11L1,1" fill="#ffffff" stroke="#323232" stroke-width="2"></path></marker></defs><rect id="svgbackgroundid" width="658" height="523.1572164948454" fill="transparent"></rect><rect id="SvgjsRect1009" width="658" height="523.1572164948454" fill="url(#pattern_mark_0)"></rect><rect id="SvgjsRect1010" width="658" height="523.1572164948454" fill="url(#pattern_mark_1)"></rect><g id="SvgjsG1011" transform="translate(133.35114503816794,25)"><path id="SvgjsPath1012" d="M 0 4Q 0 0 4 0L 174.649 0Q 178.649 0 178.649 4L 178.649 58Q 178.649 62 174.649 62L 4 62Q 0 62 0 58Z" stroke="rgba(33,41,48,1)" stroke-width="2" fill-opacity="1" fill="#ffffff"></path><path id="SvgjsPath1013" d="M 0 30L 178.649 30" stroke="rgba(33,41,48,1)" stroke-width="2" fill="none"></path><path id="SvgjsPath1014" d="M 0 0L 178.649 0L 178.649 62L 0 62Z" stroke="none" fill="none"></path><g id="SvgjsG1015"><text id="SvgjsText1016" font-family="&quot;Microsoft YaHei&quot;, 微软雅黑, Arial" text-anchor="start" font-size="13px" width="159px" fill="#323232" font-weight="700" align="middle" lineHeight="125%" anchor="start" family="&quot;Microsoft YaHei&quot;, 微软雅黑, Arial" size="13px" weight="700" font-style="" opacity="1" y="4.375" transform="rotate(0)"><tspan id="SvgjsTspan1017" dy="16.25" x="10"><tspan id="SvgjsTspan1018" style="">Component &lt;抽象&gt;</tspan></tspan></text></g><g id="SvgjsG1019"><text id="SvgjsText1020" font-family="&quot;Microsoft YaHei&quot;, 微软雅黑, Arial" text-anchor="start" font-size="13px" width="159px" fill="#323232" font-weight="400" align="middle" lineHeight="125%" anchor="start" family="&quot;Microsoft YaHei&quot;, 微软雅黑, Arial" size="13px" weight="400" font-style="" opacity="1" y="35.375" transform="rotate(0)"><tspan id="SvgjsTspan1021" dy="16.25" x="10"><tspan id="SvgjsTspan1022" style="">+operator(): void = 0 ;</tspan></tspan></text></g></g><g id="SvgjsG1023" transform="translate(25,224.08247422680415)"><path id="SvgjsPath1024" d="M 0 4Q 0 0 4 0L 170 0Q 174 0 174 4L 174 104.918Q 174 108.918 170 108.918L 4 108.918Q 0 108.918 0 104.918Z" stroke="rgba(33,41,48,1)" stroke-width="2" fill-opacity="1" fill="#ffffff"></path><path id="SvgjsPath1025" d="M 0 30L 174 30" stroke="rgba(33,41,48,1)" stroke-width="2" fill="none"></path><path id="SvgjsPath1026" d="M 0 0L 174 0L 174 108.918L 0 108.918Z" stroke="none" fill="none"></path><g id="SvgjsG1027"><text id="SvgjsText1028" font-family="&quot;Microsoft YaHei&quot;, 微软雅黑, Arial" text-anchor="start" font-size="13px" width="154px" fill="#323232" font-weight="700" align="middle" lineHeight="125%" anchor="start" family="&quot;Microsoft YaHei&quot;, 微软雅黑, Arial" size="13px" weight="700" font-style="" opacity="1" y="4.375" transform="rotate(0)"><tspan id="SvgjsTspan1029" dy="16.25" x="10"><tspan id="SvgjsTspan1030" style="">ConcreteComponent</tspan></tspan></text></g><g id="SvgjsG1031"><text id="SvgjsText1032" font-family="&quot;Microsoft YaHei&quot;, 微软雅黑, Arial" text-anchor="start" font-size="13px" width="154px" fill="#323232" font-weight="400" align="middle" lineHeight="125%" anchor="start" family="&quot;Microsoft YaHei&quot;, 微软雅黑, Arial" size="13px" weight="400" font-style="" opacity="1" y="58.834" transform="rotate(0)"><tspan id="SvgjsTspan1033" dy="16.25" x="10"><tspan id="SvgjsTspan1034" style="">+operator(): void</tspan></tspan></text></g></g><g id="SvgjsG1035" transform="translate(273.6793893129771,224.08247422680415)"><path id="SvgjsPath1036" d="M 0 4Q 0 0 4 0L 200.321 0Q 204.321 0 204.321 4L 204.321 104.918Q 204.321 108.918 200.321 108.918L 4 108.918Q 0 108.918 0 104.918Z" stroke="rgba(33,41,48,1)" stroke-width="2" fill-opacity="1" fill="#ffffff"></path><path id="SvgjsPath1037" d="M 0 30L 204.321 30" stroke="rgba(33,41,48,1)" stroke-width="2" fill="none"></path><path id="SvgjsPath1038" d="M 0 0L 204.321 0L 204.321 108.918L 0 108.918Z" stroke="none" fill="none"></path><g id="SvgjsG1039"><text id="SvgjsText1040" font-family="&quot;Microsoft YaHei&quot;, 微软雅黑, Arial" text-anchor="start" font-size="13px" width="185px" fill="#323232" font-weight="700" align="middle" lineHeight="125%" anchor="start" family="&quot;Microsoft YaHei&quot;, 微软雅黑, Arial" size="13px" weight="700" font-style="" opacity="1" y="4.375" transform="rotate(0)"><tspan id="SvgjsTspan1041" dy="16.25" x="10"><tspan id="SvgjsTspan1042" style="">Decorator</tspan></tspan></text></g><g id="SvgjsG1043"><text id="SvgjsText1044" font-family="&quot;Microsoft YaHei&quot;, 微软雅黑, Arial" text-anchor="start" font-size="13px" width="185px" fill="#323232" font-weight="400" align="middle" lineHeight="125%" anchor="start" family="&quot;Microsoft YaHei&quot;, 微软雅黑, Arial" size="13px" weight="400" font-style="" opacity="1" y="26.334000000000003" transform="rotate(0)"><tspan id="SvgjsTspan1045" dy="16.25" x="10"><tspan id="SvgjsTspan1046" style="">-component:Component</tspan></tspan><tspan id="SvgjsTspan1047" dy="16.25" x="10"><tspan id="SvgjsTspan1048" style="">+Decorator(Component c)</tspan></tspan><tspan id="SvgjsTspan1049" dy="16.25" x="10"><tspan id="SvgjsTspan1050" style="">+operator(): void{</tspan></tspan><tspan id="SvgjsTspan1051" dy="16.25" x="10"><tspan id="SvgjsTspan1052" style="">    component() // () 重载</tspan></tspan><tspan id="SvgjsTspan1053" dy="16.25" x="10"><tspan id="SvgjsTspan1054" style="">}</tspan></tspan></text></g></g><g id="SvgjsG1055" transform="translate(133.35114503816794,387.65721649484544)"><path id="SvgjsPath1056" d="M 0 4Q 0 0 4 0L 184.649 0Q 188.649 0 188.649 4L 188.649 106Q 188.649 110 184.649 110L 4 110Q 0 110 0 106Z" stroke="rgba(33,41,48,1)" stroke-width="2" fill-opacity="1" fill="#ffffff"></path><path id="SvgjsPath1057" d="M 0 30L 188.649 30" stroke="rgba(33,41,48,1)" stroke-width="2" fill="none"></path><path id="SvgjsPath1058" d="M 0 0L 188.649 0L 188.649 110L 0 110Z" stroke="none" fill="none"></path><g id="SvgjsG1059"><text id="SvgjsText1060" font-family="&quot;Microsoft YaHei&quot;, 微软雅黑, Arial" text-anchor="start" font-size="13px" width="169px" fill="#323232" font-weight="700" align="middle" lineHeight="125%" anchor="start" family="&quot;Microsoft YaHei&quot;, 微软雅黑, Arial" size="13px" weight="700" font-style="" opacity="1" y="4.375" transform="rotate(0)"><tspan id="SvgjsTspan1061" dy="16.25" x="10"><tspan id="SvgjsTspan1062" style="">ConcreteDecoratorA</tspan></tspan></text></g><g id="SvgjsG1063"><text id="SvgjsText1064" font-family="&quot;Microsoft YaHei&quot;, 微软雅黑, Arial" text-anchor="start" font-size="13px" width="169px" fill="#323232" font-weight="400" align="middle" lineHeight="125%" anchor="start" family="&quot;Microsoft YaHei&quot;, 微软雅黑, Arial" size="13px" weight="400" font-style="" opacity="1" y="26.875" transform="rotate(0)"><tspan id="SvgjsTspan1065" dy="16.25" x="10"><tspan id="SvgjsTspan1066" style="">+operator(): void{</tspan></tspan><tspan id="SvgjsTspan1067" dy="16.25" x="10"><tspan id="SvgjsTspan1068" style="">    component() // () 重载</tspan></tspan><tspan id="SvgjsTspan1069" dy="16.25" x="10"><tspan id="SvgjsTspan1070" style="">    addDecorator();</tspan></tspan><tspan id="SvgjsTspan1071" dy="16.25" x="10"><tspan id="SvgjsTspan1072" style="">}</tspan></tspan><tspan id="SvgjsTspan1073" dy="16.25" x="10"><tspan id="SvgjsTspan1074" style="">+addDecorator():void</tspan></tspan></text></g></g><g id="SvgjsG1075"><path id="SvgjsPath1076" d="M112 223.08247422680415L112 162.17268041237116L222.67557251908397 162.17268041237116L222.67557251908397 103.86288659793814" stroke-dasharray="2,3" stroke="#323232" stroke-width="2" fill="none" marker-end="url(#SvgjsMarker1077)"></path></g><g id="SvgjsG1079"><path id="SvgjsPath1080" d="M375.8396946564885 223.08247422680415L375.8396946564885 162.17268041237116L222.67557251908397 162.17268041237116L222.67557251908397 103.86288659793814" stroke-dasharray="2,3" stroke="#323232" stroke-width="2" fill="none" marker-end="url(#SvgjsMarker1081)"></path></g><g id="SvgjsG1083"><path id="SvgjsPath1084" d="M481 256.32904476793396L508 256.32904476793396L508 62.63144329896903L314 62.63144329896903" stroke="#323232" stroke-width="2" fill="none" marker-start="url(#SvgjsMarker1085)" marker-end="url(#SvgjsMarker1087)"></path></g><g id="SvgjsG1089" transform="translate(416.0839694656488,387.65721649484544)"><path id="SvgjsPath1090" d="M 0 4Q 0 0 4 0L 212.916 0Q 216.916 0 216.916 4L 216.916 106Q 216.916 110 212.916 110L 4 110Q 0 110 0 106Z" stroke="rgba(33,41,48,1)" stroke-width="2" fill-opacity="1" fill="#ffffff"></path><path id="SvgjsPath1091" d="M 0 30L 216.916 30" stroke="rgba(33,41,48,1)" stroke-width="2" fill="none"></path><path id="SvgjsPath1092" d="M 0 0L 216.916 0L 216.916 110L 0 110Z" stroke="none" fill="none"></path><g id="SvgjsG1093"><text id="SvgjsText1094" font-family="&quot;Microsoft YaHei&quot;, 微软雅黑, Arial" text-anchor="start" font-size="13px" width="197px" fill="#323232" font-weight="700" align="middle" lineHeight="125%" anchor="start" family="&quot;Microsoft YaHei&quot;, 微软雅黑, Arial" size="13px" weight="700" font-style="" opacity="1" y="4.375" transform="rotate(0)"><tspan id="SvgjsTspan1095" dy="16.25" x="10"><tspan id="SvgjsTspan1096" style="">ConcreteDecoratorB</tspan></tspan></text></g><g id="SvgjsG1097"><text id="SvgjsText1098" font-family="&quot;Microsoft YaHei&quot;, 微软雅黑, Arial" text-anchor="start" font-size="13px" width="197px" fill="#323232" font-weight="400" align="middle" lineHeight="125%" anchor="start" family="&quot;Microsoft YaHei&quot;, 微软雅黑, Arial" size="13px" weight="400" font-style="" opacity="1" y="26.875" transform="rotate(0)"><tspan id="SvgjsTspan1099" dy="16.25" x="10"><tspan id="SvgjsTspan1100" style="">+operator(): void{</tspan></tspan><tspan id="SvgjsTspan1101" dy="16.25" x="10"><tspan id="SvgjsTspan1102" style="">    component() // () 重载</tspan></tspan><tspan id="SvgjsTspan1103" dy="16.25" x="10"><tspan id="SvgjsTspan1104" style="">    addDecorator();</tspan></tspan><tspan id="SvgjsTspan1105" dy="16.25" x="10"><tspan id="SvgjsTspan1106" style="">}</tspan></tspan><tspan id="SvgjsTspan1107" dy="16.25" x="10"><tspan id="SvgjsTspan1108" style="">+addDecorator():void</tspan></tspan></text></g></g><g id="SvgjsG1109"><path id="SvgjsPath1110" d="M227.67557251908397 386.65721649484544L227.67557251908397 360.3286082474227L375.8396946564885 360.3286082474227L375.8396946564885 336.6" stroke="#323232" stroke-width="2" fill="none" marker-end="url(#SvgjsMarker1111)"></path></g><g id="SvgjsG1113"><path id="SvgjsPath1114" d="M524.5419847328244 386.65721649484544L524.5419847328244 360.3286082474227L375.8396946564885 360.3286082474227L375.8396946564885 336.6" stroke="#323232" stroke-width="2" fill="none" marker-end="url(#SvgjsMarker1115)"></path></g><g id="SvgjsG1117"></g></svg>